# xmcd CD database file
#
# Track frame offsets:
#	150
#	30528
#	53108
#	83821
#	112071
#	131828
#	160626
#	196667
#	234632
#	270000
#
# Disc length: 3849 seconds
#
# Revision: 0
# Processed by: cddbd v1.5.2PL0 Copyright (c) Steve Scherf et al.
# Submitted via: CDex 2.02
#
DISCID=770f070a
DTITLE=Tasha Cobbs Leonard - Heart. Passion. Pursuit. (Standard Edition CD)
DYEAR=2017
DGENRE=Jazz
TTITLE0=The Name Of Our God
TTITLE1=The River Of The Lord
TTITLE2=Wonderful Grace feat. Anna Golden
TTITLE3=Gracefully Broken
TTITLE4=Great God
TTITLE5=Forever At Your Feet feat. William Murphy
TTITLE6=You Know My Name feat. Jimi Cravity
TTITLE7=I'm Getting Ready feat. Nicki Minaj
TTITLE8=Your Spirit feat. Kierra Sheard
TTITLE9=Dove's Eyes
EXTD=YEAR: 2017
EXTT0=
EXTT1=
EXTT2=
EXTT3=
EXTT4=
EXTT5=
EXTT6=
EXTT7=
EXTT8=
EXTT9=
PLAYORDER=
